<svg width="45" height="44" viewBox="0 0 45 44" fill="none" xmlns="http://www.w3.org/2000/svg">
<g clip-path="url(#clip0_456_38)">
<path d="M2.92001 23.7249C2.92001 23.7249 1.34316 33.39 11.0174 39.8543C11.0174 39.8543 15.8148 44.0029 23.1282 42.2326C23.1282 42.2326 31.6627 42.6599 35.808 37.8408C35.808 37.8408 41.7813 32.9608 41.355 24.2989C41.355 24.2989 39.406 28.6907 32.3653 29.118C32.3653 29.118 26.3 29.4024 22.5502 23.2832C22.5502 23.2832 18.3742 28.9356 13.985 28.9356C13.985 28.9356 7.76435 30.5289 2.92001 23.7231V23.7249Z" fill="black"/>
<path d="M3.61377 10.0884L3.97863 0.078125C3.97863 0.078125 9.3829 3.45779 13.689 3.03578H30.7435C30.7435 3.03578 34.374 3.79576 40.7067 0.078125V9.70927C40.7067 9.70927 38.3423 6.58353 34.0363 5.9076C34.0363 5.9076 26.6903 4.13372 22.554 11.9052C22.554 11.9052 19.599 5.65368 13.2663 5.99164C13.2663 5.99164 8.56828 4.55216 3.61377 10.0866V10.0884Z" fill="black" stroke="#231F20" stroke-width="0.5" stroke-miterlimit="10"/>
<path d="M12.735 27.2996C18.1558 27.2996 22.5501 22.9027 22.5501 17.4789C22.5501 12.0551 18.1558 7.6582 12.735 7.6582C7.3143 7.6582 2.91992 12.0551 2.91992 17.4789C2.91992 22.9027 7.3143 27.2996 12.735 27.2996Z" stroke="black" stroke-width="4" stroke-miterlimit="10"/>
<path d="M32.3654 27.2996C37.7861 27.2996 42.1805 22.9027 42.1805 17.4789C42.1805 12.0551 37.7861 7.6582 32.3654 7.6582C26.9447 7.6582 22.5503 12.0551 22.5503 17.4789C22.5503 22.9027 26.9447 27.2996 32.3654 27.2996Z" stroke="black" stroke-width="4" stroke-miterlimit="10"/>
<path d="M29.2645 23.66C30.9521 23.66 32.3201 22.2662 32.3201 20.5468C32.3201 18.8274 30.9521 17.4336 29.2645 17.4336C27.577 17.4336 26.209 18.8274 26.209 20.5468C26.209 22.2662 27.577 23.66 29.2645 23.66Z" fill="black"/>
<path d="M29.2643 22.4154C30.0518 22.4154 30.6902 21.765 30.6902 20.9626C30.6902 20.1602 30.0518 19.5098 29.2643 19.5098C28.4768 19.5098 27.8384 20.1602 27.8384 20.9626C27.8384 21.765 28.4768 22.4154 29.2643 22.4154Z" fill="white"/>
<path d="M15.8197 23.66C17.5073 23.66 18.8753 22.2662 18.8753 20.5468C18.8753 18.8274 17.5073 17.4336 15.8197 17.4336C14.1322 17.4336 12.7642 18.8274 12.7642 20.5468C12.7642 22.2662 14.1322 23.66 15.8197 23.66Z" fill="black"/>
<path d="M15.82 22.4154C16.6075 22.4154 17.2459 21.765 17.2459 20.9626C17.2459 20.1602 16.6075 19.5098 15.82 19.5098C15.0325 19.5098 14.394 20.1602 14.394 20.9626C14.394 21.765 15.0325 22.4154 15.82 22.4154Z" fill="white"/>
<path d="M14.3301 42.2924V40.1859C14.3301 40.1859 15.2206 38.7876 16.232 40.1859V42.2924H14.3301Z" fill="white"/>
<path d="M16.7666 42.2924V40.1859C16.7666 40.1859 17.6571 38.7876 18.6686 40.1859V42.2924H16.7666Z" fill="white"/>
<path d="M19.25 42.2924V40.1859C19.25 40.1859 20.1405 38.7876 21.152 40.1859V42.2924H19.25Z" fill="white"/>
<path d="M23.1318 42.2924V40.1859C23.1318 40.1859 24.0223 38.7876 25.0338 40.1859V42.2924H23.1318Z" fill="white"/>
<path d="M25.5503 42.2924V40.1859C25.5503 40.1859 26.4408 38.7876 27.4523 40.1859V42.2924H25.5503Z" fill="white"/>
<path d="M28.1279 42.2924V40.1859C28.1279 40.1859 29.0184 38.7876 30.0299 40.1859V42.2924H28.1279Z" fill="white"/>
<path d="M12.1247 44.0004H39.1966C39.1966 44.0004 40.9252 43.2941 39.1966 42.2927H8.66933C8.66933 42.2927 3.71662 42.1031 2.04585 39.5657C2.04585 39.5657 0.951264 38.9863 1.18246 40.2542C1.18246 40.2542 3.02483 44.0004 12.1265 44.0004H12.1247Z" fill="black"/>
<path d="M10.0636 40.3203L9.52533 41.0892C9.52533 41.0892 5.03863 41.5631 2.08904 36.2915C2.08904 36.2915 -0.0910922 32.7348 0.154556 28.6202C0.154556 28.6202 0.317118 24.7917 2.06736 21.8984C2.06736 21.8984 1.74224 28.7561 3.16736 31.4992C3.16736 31.4992 4.42451 35.9714 10.0654 40.3203H10.0636Z" fill="black"/>
<path d="M34.7928 40.9275L34.0342 40.3624C34.0342 40.3624 36.767 39.1983 39.6516 34.5401C39.6516 34.5401 42.4332 29.9319 42.1803 25.6796V22.9956L42.4856 22.4395C42.4856 22.4395 43.8095 24.5424 44.0173 27.5841C44.0173 27.5841 44.6386 31.282 43.0148 34.5991C43.0148 34.5991 42.1695 37.8142 38.8171 39.9547C38.8171 39.9547 36.5539 41.3209 34.7928 40.9293V40.9275Z" fill="black"/>
</g>
<defs>
<clipPath id="clip0_456_38">
<rect width="44" height="44" fill="white" transform="translate(0.134766)"/>
</clipPath>
</defs>
</svg>
