<svg width="31" height="30" viewBox="0 0 31 30" fill="none" xmlns="http://www.w3.org/2000/svg">
<path d="M25.1348 0H5.13477C1.80143 0 0.134766 2 0.134766 6V24C0.134766 28 1.80143 30 5.13477 30H25.1348C28.4681 30 30.1348 28 30.1348 24V6C30.1348 2 28.4681 0 25.1348 0ZM25.0363 9.21201L16.8499 16.356C16.3365 16.804 15.7348 17.028 15.1348 17.028C14.5348 17.028 13.9313 16.804 13.4197 16.358L5.23324 9.21201C4.6749 8.72601 4.5515 7.786 4.95817 7.116C5.36317 6.448 6.14126 6.29601 6.70459 6.78601L14.8914 13.93C15.0381 14.056 15.2331 14.058 15.3797 13.93L23.5666 6.78601C24.1282 6.29601 24.908 6.448 25.313 7.116C25.7197 7.788 25.5946 8.72601 25.0363 9.21201Z" fill="black"/>
</svg>
